<mxfile host="65bd71144e">
    <diagram id="amqrW1gJ4K7w5JCBkm9t" name="Page-1">
        <mxGraphModel dx="1260" dy="906" grid="1" gridSize="10" guides="1" tooltips="1" connect="1" arrows="1" fold="1" page="1" pageScale="1" pageWidth="827" pageHeight="1169" math="0" shadow="0">
            <root>
                <mxCell id="0"/>
                <mxCell id="1" parent="0"/>
                <mxCell id="4" value="" style="rounded=0;whiteSpace=wrap;html=1;fontColor=#000000;" parent="1" vertex="1">
                    <mxGeometry x="160" y="200" width="560" height="400" as="geometry"/>
                </mxCell>
                <mxCell id="QJUcf3hQXVjyApLe9Yys-74" style="edgeStyle=orthogonalEdgeStyle;rounded=0;orthogonalLoop=1;jettySize=auto;html=1;exitX=0.25;exitY=0;exitDx=0;exitDy=0;entryX=0.75;entryY=0;entryDx=0;entryDy=0;fontColor=#CC0000;" parent="1" source="QJUcf3hQXVjyApLe9Yys-1" target="QJUcf3hQXVjyApLe9Yys-1" edge="1">
                    <mxGeometry relative="1" as="geometry">
                        <Array as="points">
                            <mxPoint x="300" y="340"/>
                            <mxPoint x="360" y="340"/>
                        </Array>
                    </mxGeometry>
                </mxCell>
                <mxCell id="QJUcf3hQXVjyApLe9Yys-75" value="&lt;font color=&quot;#000000&quot;&gt;File Button&lt;/font&gt;&lt;br&gt;/ Open File dropdown menu" style="edgeLabel;html=1;align=center;verticalAlign=middle;resizable=0;points=[];fontColor=#CC0000;" parent="QJUcf3hQXVjyApLe9Yys-74" vertex="1" connectable="0">
                    <mxGeometry x="-0.3181" relative="1" as="geometry">
                        <mxPoint x="16" y="-20" as="offset"/>
                    </mxGeometry>
                </mxCell>
                <mxCell id="QJUcf3hQXVjyApLe9Yys-1" value="JPass Dashboard&lt;br&gt;(idle state)" style="html=1;fillColor=#dae8fc;strokeColor=#6c8ebf;" parent="1" vertex="1">
                    <mxGeometry x="260" y="360" width="120" height="80" as="geometry"/>
                </mxCell>
                <mxCell id="QJUcf3hQXVjyApLe9Yys-57" value="" style="ellipse;html=1;shape=startState;fillColor=#000000;strokeColor=#ff0000;fontColor=#CC0000;" parent="1" vertex="1">
                    <mxGeometry x="170" y="385" width="30" height="30" as="geometry"/>
                </mxCell>
                <mxCell id="QJUcf3hQXVjyApLe9Yys-58" value="" style="edgeStyle=orthogonalEdgeStyle;html=1;verticalAlign=bottom;endArrow=open;endSize=8;strokeColor=#ff0000;rounded=0;fontColor=#CC0000;exitX=1;exitY=0.5;exitDx=0;exitDy=0;" parent="1" source="QJUcf3hQXVjyApLe9Yys-57" edge="1">
                    <mxGeometry relative="1" as="geometry">
                        <mxPoint x="260" y="400" as="targetPoint"/>
                        <mxPoint x="320" y="300" as="sourcePoint"/>
                    </mxGeometry>
                </mxCell>
                <mxCell id="QJUcf3hQXVjyApLe9Yys-76" style="edgeStyle=orthogonalEdgeStyle;rounded=0;orthogonalLoop=1;jettySize=auto;html=1;exitX=1;exitY=0.5;exitDx=0;exitDy=0;entryX=0;entryY=0.25;entryDx=0;entryDy=0;fontColor=#000000;" parent="1" source="QJUcf3hQXVjyApLe9Yys-1" target="QJUcf3hQXVjyApLe9Yys-69" edge="1">
                    <mxGeometry relative="1" as="geometry">
                        <mxPoint x="520" y="380" as="sourcePoint"/>
                    </mxGeometry>
                </mxCell>
                <mxCell id="QJUcf3hQXVjyApLe9Yys-77" value="Change Password Button&lt;br&gt;[File dropdown menu open]" style="edgeLabel;html=1;align=center;verticalAlign=middle;resizable=0;points=[];fontColor=#000000;" parent="QJUcf3hQXVjyApLe9Yys-76" vertex="1" connectable="0">
                    <mxGeometry x="-0.212" y="-2" relative="1" as="geometry">
                        <mxPoint x="7" y="13" as="offset"/>
                    </mxGeometry>
                </mxCell>
                <mxCell id="QJUcf3hQXVjyApLe9Yys-78" style="edgeStyle=orthogonalEdgeStyle;rounded=0;orthogonalLoop=1;jettySize=auto;html=1;exitX=0.25;exitY=0;exitDx=0;exitDy=0;entryX=0.25;entryY=1;entryDx=0;entryDy=0;fontColor=#000000;" parent="1" source="QJUcf3hQXVjyApLe9Yys-69" target="QJUcf3hQXVjyApLe9Yys-70" edge="1">
                    <mxGeometry relative="1" as="geometry"/>
                </mxCell>
                <mxCell id="QJUcf3hQXVjyApLe9Yys-80" value="Ok Button&lt;br&gt;[invalid form]" style="edgeLabel;html=1;align=center;verticalAlign=middle;resizable=0;points=[];fontColor=#000000;" parent="QJUcf3hQXVjyApLe9Yys-78" vertex="1" connectable="0">
                    <mxGeometry x="0.0962" y="1" relative="1" as="geometry">
                        <mxPoint x="-39" y="6" as="offset"/>
                    </mxGeometry>
                </mxCell>
                <mxCell id="QJUcf3hQXVjyApLe9Yys-82" style="edgeStyle=orthogonalEdgeStyle;rounded=0;orthogonalLoop=1;jettySize=auto;html=1;exitX=0;exitY=0.75;exitDx=0;exitDy=0;entryX=0.5;entryY=0;entryDx=0;entryDy=0;fontColor=#000000;" parent="1" source="QJUcf3hQXVjyApLe9Yys-69" target="QJUcf3hQXVjyApLe9Yys-72" edge="1">
                    <mxGeometry relative="1" as="geometry"/>
                </mxCell>
                <mxCell id="QJUcf3hQXVjyApLe9Yys-83" value="Cancel Button" style="edgeLabel;html=1;align=center;verticalAlign=middle;resizable=0;points=[];fontColor=#000000;" parent="QJUcf3hQXVjyApLe9Yys-82" vertex="1" connectable="0">
                    <mxGeometry x="0.1293" relative="1" as="geometry">
                        <mxPoint x="28" y="10" as="offset"/>
                    </mxGeometry>
                </mxCell>
                <mxCell id="QJUcf3hQXVjyApLe9Yys-84" style="edgeStyle=orthogonalEdgeStyle;rounded=0;orthogonalLoop=1;jettySize=auto;html=1;exitX=0.25;exitY=1;exitDx=0;exitDy=0;entryX=1;entryY=0.75;entryDx=0;entryDy=0;fontColor=#000000;" parent="1" source="QJUcf3hQXVjyApLe9Yys-69" target="QJUcf3hQXVjyApLe9Yys-72" edge="1">
                    <mxGeometry relative="1" as="geometry"/>
                </mxCell>
                <mxCell id="QJUcf3hQXVjyApLe9Yys-85" value="Ok Button&lt;br&gt;[valid form]" style="edgeLabel;html=1;align=center;verticalAlign=middle;resizable=0;points=[];fontColor=#000000;" parent="QJUcf3hQXVjyApLe9Yys-84" vertex="1" connectable="0">
                    <mxGeometry x="0.1148" relative="1" as="geometry">
                        <mxPoint x="-1" y="-20" as="offset"/>
                    </mxGeometry>
                </mxCell>
                <mxCell id="QJUcf3hQXVjyApLe9Yys-69" value="Enter Password" style="html=1;fillColor=#dae8fc;strokeColor=#6c8ebf;" parent="1" vertex="1">
                    <mxGeometry x="540" y="380" width="120" height="80" as="geometry"/>
                </mxCell>
                <mxCell id="QJUcf3hQXVjyApLe9Yys-79" style="edgeStyle=orthogonalEdgeStyle;rounded=0;orthogonalLoop=1;jettySize=auto;html=1;exitX=0.75;exitY=1;exitDx=0;exitDy=0;entryX=0.75;entryY=0;entryDx=0;entryDy=0;fontColor=#000000;" parent="1" source="QJUcf3hQXVjyApLe9Yys-70" target="QJUcf3hQXVjyApLe9Yys-69" edge="1">
                    <mxGeometry relative="1" as="geometry"/>
                </mxCell>
                <mxCell id="3" value="&lt;font color=&quot;#000000&quot;&gt;Ok Button&lt;/font&gt;" style="edgeLabel;html=1;align=center;verticalAlign=middle;resizable=0;points=[];fontColor=#CC0000;" parent="QJUcf3hQXVjyApLe9Yys-79" vertex="1" connectable="0">
                    <mxGeometry x="-0.2817" y="-1" relative="1" as="geometry">
                        <mxPoint y="5" as="offset"/>
                    </mxGeometry>
                </mxCell>
                <mxCell id="QJUcf3hQXVjyApLe9Yys-70" value="Enter Password&lt;br&gt;(warning popup)" style="html=1;fillColor=#dae8fc;strokeColor=#6c8ebf;" parent="1" vertex="1">
                    <mxGeometry x="540" y="230" width="120" height="80" as="geometry"/>
                </mxCell>
                <mxCell id="QJUcf3hQXVjyApLe9Yys-86" style="edgeStyle=orthogonalEdgeStyle;rounded=0;orthogonalLoop=1;jettySize=auto;html=1;exitX=0;exitY=0.5;exitDx=0;exitDy=0;entryX=0.5;entryY=1;entryDx=0;entryDy=0;fontColor=#000000;" parent="1" source="QJUcf3hQXVjyApLe9Yys-72" target="QJUcf3hQXVjyApLe9Yys-1" edge="1">
                    <mxGeometry relative="1" as="geometry"/>
                </mxCell>
                <mxCell id="QJUcf3hQXVjyApLe9Yys-87" value="Ok Button" style="edgeLabel;html=1;align=center;verticalAlign=middle;resizable=0;points=[];fontColor=#000000;" parent="QJUcf3hQXVjyApLe9Yys-86" vertex="1" connectable="0">
                    <mxGeometry x="-0.2493" y="-1" relative="1" as="geometry">
                        <mxPoint x="23" y="-9" as="offset"/>
                    </mxGeometry>
                </mxCell>
                <mxCell id="QJUcf3hQXVjyApLe9Yys-72" value="Enter Password&lt;br&gt;(information popup)" style="html=1;fillColor=#dae8fc;strokeColor=#6c8ebf;" parent="1" vertex="1">
                    <mxGeometry x="400" y="479.73" width="120" height="80" as="geometry"/>
                </mxCell>
            </root>
        </mxGraphModel>
    </diagram>
</mxfile>